<svg width="20" height="20" viewBox="0 0 20 20" fill="none" xmlns="http://www.w3.org/2000/svg">
<path d="M14.3035 17.6647C13.3882 18.5442 12.3888 18.4054 11.4267 17.9888C10.4086 17.5629 9.47455 17.5444 8.40041 17.9888C7.05539 18.5628 6.34552 18.3961 5.54224 17.6647C0.984125 13.0079 1.65663 5.91621 6.83122 5.65699C8.09217 5.72179 8.97017 6.34208 9.70806 6.39763C10.8102 6.17544 11.8657 5.53663 13.0426 5.61995C14.453 5.73105 15.5178 6.28654 16.2183 7.28641C13.3041 9.01767 13.9953 12.8227 16.6667 13.8874C16.1343 15.2761 15.4431 16.6556 14.2942 17.674L14.3035 17.6647V17.6647ZM9.61466 5.60144C9.47455 3.53688 11.1652 1.83339 13.108 1.66675C13.3788 4.05534 10.9223 5.83289 9.61466 5.60144Z" fill="white"/>
</svg>
