<svg width="105" height="105" viewBox="0 0 105 105" fill="none" xmlns="http://www.w3.org/2000/svg">
<circle cx="52.5" cy="52.5" r="52.5" fill="#9077FD"/>
<path d="M74.6842 37.1318C75.6472 39.6157 74.2995 41.3167 71.6918 42.9952C69.5881 44.3451 66.9084 45.8121 64.0689 48.3163C61.2835 50.771 58.5678 53.7297 56.1536 56.6412C54.088 59.1407 52.1215 61.7203 50.2587 64.3743C49.3272 65.704 48.0244 67.6885 48.0244 67.6885C47.557 68.4107 46.9131 69.0019 46.1537 69.4062C45.3943 69.8105 44.5444 70.0146 43.6843 69.9992C42.8246 69.9941 41.9805 69.7692 41.2322 69.3459C40.484 68.9225 39.8565 68.3148 39.4093 67.5805C37.1616 63.8073 35.4292 62.3156 34.6327 61.7823C32.502 60.3469 30 60.1399 30 56.8009C30 54.1482 32.2387 51.9995 34.9994 51.9995C36.9501 52.0715 38.7613 52.8387 40.3678 53.9187C41.3938 54.6072 42.4805 55.5207 43.61 56.7199C45.1237 54.6543 46.6979 52.6337 48.3304 50.6608C50.9336 47.5221 54.0071 44.1539 57.3033 41.2469C60.5432 38.3895 64.2894 35.7143 68.2606 34.3013C70.848 33.3788 73.7235 34.6456 74.6842 37.1318Z" fill="white"/>
</svg>
