<svg width="20" height="20" viewBox="0 0 20 20" fill="none" xmlns="http://www.w3.org/2000/svg">
<path d="M18.1712 8.368H17.5V8.33342H9.99996V11.6667H14.7095C14.0225 13.6072 12.1762 15.0001 9.99996 15.0001C7.23871 15.0001 4.99996 12.7613 4.99996 10.0001C4.99996 7.23883 7.23871 5.00008 9.99996 5.00008C11.2745 5.00008 12.4341 5.48091 13.317 6.26633L15.6741 3.90925C14.1858 2.52216 12.195 1.66675 9.99996 1.66675C5.39788 1.66675 1.66663 5.398 1.66663 10.0001C1.66663 14.6022 5.39788 18.3334 9.99996 18.3334C14.602 18.3334 18.3333 14.6022 18.3333 10.0001C18.3333 9.44133 18.2758 8.89592 18.1712 8.368Z" fill="#FFC107"/>
<path d="M2.62746 6.12133L5.36538 8.12925C6.10621 6.29508 7.90038 5.00008 9.99996 5.00008C11.2745 5.00008 12.4341 5.48091 13.317 6.26633L15.6741 3.90925C14.1858 2.52216 12.195 1.66675 9.99996 1.66675C6.79913 1.66675 4.02329 3.47383 2.62746 6.12133Z" fill="#FF3D00"/>
<path d="M9.99996 18.3334C12.1525 18.3334 14.1083 17.5097 15.587 16.1701L13.0079 13.9876C12.1431 14.6452 11.0864 15.0009 9.99996 15.0001C7.83246 15.0001 5.99204 13.618 5.29871 11.6892L2.58121 13.783C3.96038 16.4817 6.76121 18.3334 9.99996 18.3334Z" fill="#4CAF50"/>
<path d="M18.1712 8.368H17.5V8.33342H9.99996V11.6667H14.7095C14.3809 12.5903 13.7889 13.3972 13.0066 13.988L13.0079 13.9876L15.587 16.1701C15.4045 16.3359 18.3333 14.1667 18.3333 10.0001C18.3333 9.44133 18.2758 8.89592 18.1712 8.368Z" fill="#1976D2"/>
</svg>
