<svg width="76" height="23" viewBox="0 0 76 23" fill="none" xmlns="http://www.w3.org/2000/svg">
<path d="M10.6629 18H1.28492V5.94H3.22892V16.254H10.6629V18ZM17.2117 18.18C14.2417 18.18 12.2437 16.29 12.2437 13.536C12.2437 10.746 14.2417 8.874 17.2117 8.874C20.1997 8.874 22.1977 10.746 22.1977 13.536C22.1977 16.29 20.1997 18.18 17.2117 18.18ZM17.2117 16.452C19.3897 16.452 20.2897 15.426 20.2897 13.536C20.2897 11.628 19.3897 10.584 17.2117 10.584C15.0517 10.584 14.1517 11.628 14.1517 13.536C14.1517 15.426 15.0517 16.452 17.2117 16.452ZM28.0544 18.18C25.5344 18.18 24.3104 16.506 24.3104 14.436V9.054H26.2364V13.914C26.2364 15.588 27.0104 16.434 28.9004 16.434C30.8804 16.434 31.7984 15.426 31.7984 13.482V9.054H33.7244V18H31.9424V15.228H31.8344C31.5464 16.74 30.3584 18.18 28.0544 18.18Z" fill="#EEFC79"/>
<path d="M41.3311 18H36.541V5.31738H41.3486C43.5195 5.31738 44.9873 6.58301 44.9873 8.48145C44.9873 9.7998 44.0205 11.0303 42.7988 11.25V11.3203C44.5215 11.54 45.6289 12.7529 45.6289 14.4404C45.6289 16.6729 44.0293 18 41.3311 18ZM38.123 6.71484V10.7842H40.4961C42.3682 10.7842 43.3877 10.0371 43.3877 8.66602C43.3877 7.40918 42.5264 6.71484 40.9883 6.71484H38.123ZM38.123 16.6025H41.0938C43.001 16.6025 44.0029 15.8291 44.0029 14.3613C44.0029 12.8936 42.9658 12.1465 40.9443 12.1465H38.123V16.6025ZM50.9192 16.8574C52.3606 16.8574 53.468 15.8467 53.468 14.5283V13.7812L51.0247 13.9307C49.7942 14.0098 49.0911 14.5547 49.0911 15.416C49.0911 16.2861 49.8206 16.8574 50.9192 16.8574ZM50.5764 18.1582C48.7571 18.1582 47.5354 17.0596 47.5354 15.416C47.5354 13.8516 48.7395 12.8672 50.8489 12.7441L53.468 12.5947V11.8301C53.468 10.7139 52.7298 10.0459 51.4641 10.0459C50.2864 10.0459 49.5481 10.5996 49.3548 11.4961H47.8782C47.9837 9.91406 49.3372 8.70117 51.4993 8.70117C53.6438 8.70117 54.9973 9.86133 54.9973 11.6807V18H53.5471V16.4268H53.512C52.9671 17.4727 51.8069 18.1582 50.5764 18.1582ZM57.6597 18V8.85938H59.1011V10.3184H59.1363C59.6461 9.33398 60.6216 8.70117 62.0367 8.70117C64.0406 8.70117 65.2007 9.99316 65.2007 12.0674V18H63.6714V12.3398C63.6714 10.8633 62.9771 10.0547 61.5709 10.0547C60.1295 10.0547 59.189 11.0742 59.189 12.6211V18H57.6597ZM69.4803 12.9199L73.5233 8.85938H75.3778L71.4139 12.8057L75.5008 18H73.7254L70.3329 13.7461L69.4803 14.5547V18H67.951V5.31738H69.4803V12.9199Z" fill="white"/>
<path d="M46.5 2.99946C50.6667 1.49946 61.4 -0.600535 71 2.99946" stroke="#EEFC79"/>
</svg>
